# xmcd
#
# Track frame offsets:
#	150
#	10635
#	21210
#	34298
#	47048
#	58958
#	67636
#	78174
#	90189
#	99197
#	111655
#	120258
#
# Disc length: 1693 seconds
#
# Revision: 1
# Processed by: cddbd v1.5.2PL0 Copyright (c) Steve Scherf et al.
# Submitted via: audiograbber 1.83.01
#
DISCID=85069b0c
DTITLE=Chubby Wise - Chubby At His Best
DYEAR=1973
DGENRE=Bluegrass
TTITLE0=Gotta See Your Mama Every Night
TTITLE1=Time Changes Everything
TTITLE2=Deep Elm Blues
TTITLE3=Georgiana Moon
TTITLE4=Blues On My Mind
TTITLE5=It Makes No Difference
TTITLE6=Spanish Two Step
TTITLE7=Shenandoah Waltz
TTITLE8=Just Because
TTITLE9=Westphalia Waltz
TTITLE10=Detour
TTITLE11=Bury Me Beneath The Willow
EXTD=This CD was created from one of my LP's
EXTT0=
EXTT1=
EXTT2=
EXTT3=
EXTT4=
EXTT5=
EXTT6=
EXTT7=
EXTT8=
EXTT9=
EXTT10=
EXTT11=
PLAYORDER=
